<svg width="66" height="66" viewBox="0 0 66 66" fill="none" xmlns="http://www.w3.org/2000/svg">
<mask id="path-1-inside-1_4_39" fill="white">
<path d="M0 0H66V66H0V0Z"/>
</mask>
<path d="M39.9971 25.9233C39.9547 25.3726 39.474 24.9606 38.9233 25.0029L29.9498 25.6932C29.3992 25.7356 28.9871 26.2163 29.0295 26.767C29.0718 27.3176 29.5525 27.7297 30.1032 27.6873L38.0796 27.0738L38.6932 35.0502C38.7356 35.6008 39.2163 36.0129 39.767 35.9705C40.3176 35.9282 40.7297 35.4475 40.6873 34.8968L39.9971 25.9233ZM27 40L27.7593 40.6508L39.7593 26.6508L39 26L38.2407 25.3492L26.2407 39.3492L27 40ZM0 0V-2H-2V0H0ZM66 0H68V-2H66V0ZM66 66V68H68V66H66ZM0 66H-2V68H0V66ZM0 0V2H66V0V-2H0V0ZM66 0H64V66H66H68V0H66ZM66 66V64H0V66V68H66V66ZM0 66H2V0H0H-2V66H0Z" fill="black" fill-opacity="0.6" mask="url(#path-1-inside-1_4_39)"/>
</svg>
