<svg width="145" height="145" viewBox="0 0 145 145" fill="none" xmlns="http://www.w3.org/2000/svg">
<circle cx="72.5" cy="72.5" r="72.5" fill="white"/>
<circle cx="72.1244" cy="72.8756" r="72.1244" fill="#0BBAF0" fill-opacity="0.2"/>
<path d="M72.8756 80.8537C88.9205 80.8537 101.916 67.8058 101.916 51.6963C101.916 35.5868 88.9205 22.5389 72.8756 22.5389C56.8308 22.5389 43.8352 35.5868 43.8352 51.6963C43.8352 67.8058 56.8308 80.8537 72.8756 80.8537ZM65.6881 94.4605C41.8508 94.4605 22.5389 113.85 22.5389 137.784C22.5389 141.768 25.7575 145 29.7264 145H116.025C119.994 145 123.212 141.768 123.212 137.784C123.212 113.85 103.901 94.4605 80.0632 94.4605H65.6881Z" fill="white"/>
</svg>
